<svg xmlns="http://www.w3.org/2000/svg" viewBox="0 0 64 64" role="img" aria-label="Dockmark">
  <rect x="2" y="2" width="60" height="60" rx="14" fill="#f8fafc" stroke="#bfdbfe" stroke-width="4"/>
  <path d="M16 42.5c0-3 2.4-5.5 5.5-5.5h21c3 0 5.5 2.4 5.5 5.5S45.6 48 42.5 48h-21c-3.1 0-5.5-2.5-5.5-5.5Z" fill="#60a5fa"/>
  <path d="M21 18c0-1.7 1.3-3 3-3h16c1.7 0 3 1.3 3 3v27l-11-6.6L21 45V18Z" fill="#2563eb"/>
  <path d="M27 22.5h10c1.4 0 2.5 1.1 2.5 2.5S38.4 27.5 37 27.5H27c-1.4 0-2.5-1.1-2.5-2.5s1.1-2.5 2.5-2.5Z" fill="#f8fafc"/>
  <path d="M24 42.9V35l8 4.8 8-4.8v7.9l-8-4.8-8 4.8Z" fill="#dbeafe"/>
</svg>
